<?xml version="1.0" encoding="utf-8"?>
<svg viewBox="0 0 500 500" xmlns="http://www.w3.org/2000/svg">
  <g transform="matrix(0.0271, 0, 0, -0.020261, 48.261262, 309.695073)" fill="#000000" stroke="none" style="">
    <path d="M 7360.179 12700.434 C 7349.993 12669.193 7349.993 9439.515 7360.179 9394.885 C 7365.269 9374.059 7404.73 9332.406 7459.467 9289.262 C 7509.111 9250.584 7659.319 9133.061 7791.702 9027.438 C 8001.737 8860.823 8220.682 8688.255 8536.371 8439.816 C 8626.748 8369.899 8698.032 8313.369 8947.528 8115.511 C 9037.907 8044.106 9141.014 7962.285 9179.203 7934.02 C 9216.118 7905.755 9359.96 7792.693 9499.983 7682.607 C 9638.732 7572.522 9838.584 7414.831 9942.964 7333.009 C 10048.617 7249.703 10159.364 7160.443 10191.187 7132.177 C 10223.009 7105.398 10257.379 7078.622 10267.563 7074.16 C 10277.746 7069.698 10315.934 7041.432 10350.302 7013.165 C 10385.946 6983.414 10424.133 6953.66 10435.59 6944.733 C 10447.047 6937.296 10529.787 6871.84 10620.166 6800.434 C 10920.577 6560.921 11443.755 6148.844 11629.604 6004.542 C 11825.635 5852.802 11851.094 5827.513 11835.818 5797.759 C 11830.727 5787.347 11709.798 5687.675 11565.958 5574.614 C 11422.114 5463.04 11176.438 5269.646 11018.595 5144.685 C 10748.732 4931.95 10462.322 4705.83 9885.682 4252.095 C 9083.733 3621.334 8470.177 3137.85 8179.949 2907.266 C 8050.109 2806.104 7817.161 2621.637 7661.864 2501.138 C 7505.294 2379.15 7372.908 2267.577 7365.269 2251.214 C 7348.721 2215.508 7347.449 -1079.625 7365.269 -1110.866 C 7374.18 -1127.229 7406.003 -1109.379 7533.298 -1011.193 C 7619.856 -944.249 7719.146 -865.404 7753.515 -835.65 C 7789.157 -805.898 7897.357 -721.102 7995.373 -645.232 C 8093.389 -569.362 8313.607 -395.307 8485.453 -261.422 C 8657.3 -126.044 8948.801 104.542 9134.649 250.329 C 9320.499 396.12 9485.981 528.52 9503.801 543.396 C 9521.622 559.76 9624.73 641.58 9732.929 724.89 C 9841.13 808.198 10030.797 956.963 10152.999 1053.658 C 10555.246 1370.528 10943.492 1676.982 11284.637 1946.246 C 11470.487 2092.037 11648.697 2231.874 11680.52 2257.164 C 11712.344 2282.454 11747.986 2310.72 11759.443 2318.159 C 11770.899 2327.082 11839.637 2380.638 11912.195 2437.169 C 11984.753 2495.187 12114.59 2597.834 12202.424 2666.266 C 12290.257 2734.699 12381.908 2807.592 12406.092 2826.931 C 12430.28 2847.758 12521.93 2919.165 12609.763 2987.597 C 12697.596 3057.516 12843.983 3172.067 12934.362 3244.96 C 13104.937 3380.336 13833.053 3954.567 13960.347 4052.752 C 14001.082 4083.993 14035.451 4124.159 14040.543 4143.498 C 14044.361 4162.837 14048.18 4914.099 14048.18 5814.123 C 14048.18 7554.67 14049.453 7504.089 13987.079 7541.282 C 13971.804 7550.206 13948.891 7568.058 13937.436 7579.959 C 13924.705 7593.349 13731.22 7746.575 13507.182 7922.119 C 13283.146 8097.66 12991.645 8326.757 12857.985 8432.381 C 12245.704 8917.352 12122.23 9014.049 12103.136 9027.438 C 12075.13 9046.778 11825.635 9243.146 11705.98 9339.844 C 11550.681 9464.806 11222.264 9725.144 11200.624 9741.506 C 11148.434 9778.699 10644.352 10175.9 10187.367 10538.885 C 10048.617 10648.971 9925.143 10745.669 9913.686 10753.108 C 9885.682 10772.447 9600.543 10997.079 9338.318 11205.351 C 9100.281 11394.282 8606.382 11782.558 8504.547 11861.402 C 8466.359 11889.666 8305.968 12016.118 8145.579 12142.568 C 7986.463 12269.016 7766.243 12441.584 7658.046 12527.867 C 7549.844 12612.664 7451.83 12692.997 7440.373 12703.411 C 7413.641 12731.674 7370.362 12730.187 7360.179 12700.434 Z" style="fill: rgb(11, 9, 141);"/>
    <path d="M 7136.141 7349.374 C 6760.626 7048.871 6713.527 7011.678 6708.436 7011.678 C 6705.888 7011.678 6679.158 6990.852 6649.88 6967.047 C 6619.33 6941.759 6432.208 6794.482 6232.357 6636.792 C 6032.507 6480.589 5758.825 6264.88 5622.621 6157.769 C 5345.122 5939.087 5267.472 5878.092 5187.277 5815.611 C 5156.728 5793.295 5119.811 5765.031 5105.81 5753.13 C 5063.802 5718.914 4979.789 5651.97 4958.15 5635.607 C 4914.87 5604.366 4364.961 5169.974 4305.134 5120.881 C 4272.037 5092.616 4235.122 5064.351 4223.665 5055.424 C 4143.471 4994.431 3330.064 4356.232 2957.095 4060.189 C 2831.075 3960.517 2720.329 3874.233 2710.146 3865.308 C 2698.688 3857.87 2582.851 3767.124 2453.012 3665.963 C 2323.174 3563.318 2096.59 3386.288 1948.93 3271.738 C 1802.542 3157.189 1679.068 3060.493 1675.249 3054.541 C 1671.43 3050.078 1551.774 2954.871 1407.932 2841.81 C 1264.09 2730.235 1104.973 2605.272 1052.783 2563.619 C 1001.865 2523.454 956.041 2489.238 953.495 2489.238 C 950.948 2489.238 917.852 2462.46 879.665 2429.731 C 841.476 2397.002 807.107 2370.226 803.287 2370.226 C 788.013 2370.226 668.358 2260.139 656.9 2236.336 C 649.262 2218.484 644.171 1602.6 644.171 558.273 C 644.171 -1069.212 644.171 -1093.014 669.63 -1130.205 C 683.632 -1151.033 856.75 -1295.334 1054.056 -1450.05 C 1252.634 -1604.763 1476.671 -1781.794 1551.774 -1841.3 C 1626.877 -1902.293 1737.622 -1988.576 1794.905 -2033.205 C 1962.933 -2162.631 2761.062 -2791.905 3104.756 -3065.632 C 3187.497 -3132.576 3277.874 -3202.495 3305.878 -3223.321 C 3332.61 -3244.149 3508.275 -3381.012 3695.397 -3529.776 C 4432.426 -4109.958 4609.364 -4249.798 4959.421 -4525.011 C 5476.233 -4931.139 5835.201 -5213.791 6092.334 -5417.598 C 6214.535 -5514.296 6489.49 -5731.492 6703.344 -5899.595 C 6917.197 -6067.7 7128.504 -6234.316 7174.33 -6270.02 C 7220.156 -6305.724 7267.254 -6345.889 7278.71 -6357.791 C 7290.167 -6369.691 7313.079 -6377.13 7329.627 -6374.154 L 7358.905 -6369.691 L 7362.724 -4697.578 C 7363.998 -3562.504 7361.451 -3019.514 7352.54 -3007.614 C 7341.084 -2991.249 6803.906 -2562.807 6652.426 -2449.746 C 6606.599 -2415.531 6443.663 -2286.106 5818.653 -1793.695 C 5678.631 -1682.122 5406.221 -1467.9 5214.009 -1316.16 C 5021.795 -1165.908 4729.021 -935.323 4564.811 -805.898 C 4400.603 -676.472 4182.931 -503.905 4081.096 -425.061 C 3979.262 -344.727 3779.41 -185.549 3635.57 -71.001 C 3491.728 42.06 3319.882 177.435 3253.688 228.015 C 2999.101 421.409 2865.442 535.958 2865.442 561.247 C 2865.442 574.636 2889.629 604.39 2917.633 626.704 C 2967.279 665.383 3186.222 837.951 3662.301 1214.324 C 4252.943 1679.958 4386.601 1784.091 4604.273 1956.66 C 4734.113 2057.821 4853.769 2153.029 4871.588 2167.904 C 4888.137 2181.293 4960.694 2237.825 5030.706 2292.868 C 5210.19 2431.219 5606.073 2742.137 5905.213 2980.16 C 6043.963 3090.245 6166.164 3188.429 6178.894 3195.869 C 6190.349 3204.794 6229.813 3236.034 6266.726 3267.275 C 6303.641 3297.028 6338.011 3322.317 6343.102 3323.805 C 6348.196 3323.805 6378.745 3346.12 6410.569 3374.385 C 6442.392 3401.163 6661.335 3576.706 6898.102 3762.661 C 7134.87 3948.617 7337.265 4115.233 7347.449 4131.596 C 7362.724 4156.887 7365.269 4409.786 7365.269 5800.735 C 7365.269 6702.248 7361.451 7450.534 7357.633 7463.922 C 7353.813 7477.311 7339.811 7487.725 7328.355 7486.238 C 7316.898 7486.238 7230.338 7423.755 7136.141 7349.374 Z" style="fill: rgb(48, 112, 250);"/>
  </g>
</svg>